<?xml version="1.0" encoding="utf-8"?>
<!-- Generator: Adobe Illustrator 21.0.0, SVG Export Plug-In . SVG Version: 6.00 Build 0)  -->
<svg version="1.1" id="Layer_1" xmlns="http://www.w3.org/2000/svg" xmlns:xlink="http://www.w3.org/1999/xlink" x="0px" y="0px"
	 viewBox="0 0 64 64" style="enable-background:new 0 0 64 64;" xml:space="preserve">
<style type="text/css">
	.st0{fill:#455A64;stroke:#37474F;stroke-linecap:round;stroke-linejoin:round;stroke-miterlimit:10;}
	.st1{fill:#78909C;stroke:#37474F;stroke-linecap:round;stroke-linejoin:round;stroke-miterlimit:10;}
	.st2{fill:#ECEFF1;stroke:#37474F;stroke-linecap:round;stroke-linejoin:round;stroke-miterlimit:10;}
	.st3{fill:none;stroke:#FFFFFF;stroke-linecap:round;stroke-linejoin:round;stroke-miterlimit:10;}
	.st4{fill:#FFCA28;stroke:#37474F;stroke-linecap:round;stroke-linejoin:round;stroke-miterlimit:10;}
	.st5{fill:none;stroke:#37474F;stroke-linecap:round;stroke-linejoin:round;stroke-miterlimit:10;}
	.st6{fill:#B0BEC5;}
	.st7{fill:#37474F;}
	.st8{fill:#455A64;}
	.st9{fill:#9CCC65;stroke:#37474F;stroke-linecap:round;stroke-linejoin:round;stroke-miterlimit:10;}
	.st10{fill:none;stroke:#C5E1A5;stroke-linecap:round;stroke-linejoin:round;stroke-miterlimit:10;}
	.st11{fill:#26C6DA;stroke:#37474F;stroke-linecap:round;stroke-linejoin:round;stroke-miterlimit:10;}
	.st12{fill:#EF5350;stroke:#37474F;stroke-linecap:round;stroke-linejoin:round;stroke-miterlimit:10;}
	.st13{fill:#B0BEC5;stroke:#37474F;stroke-linecap:round;stroke-linejoin:round;stroke-miterlimit:10;}
	.st14{fill:none;stroke:#EF9A9A;stroke-linecap:round;stroke-linejoin:round;stroke-miterlimit:10;}
	.st15{fill:none;stroke:#FFE082;stroke-linecap:round;stroke-linejoin:round;stroke-miterlimit:10;}
	.st16{fill:#D32F2F;stroke:#37474F;stroke-linecap:round;stroke-linejoin:round;stroke-miterlimit:10;}
	.st17{fill:#0097A7;stroke:#37474F;stroke-linecap:round;stroke-linejoin:round;stroke-miterlimit:10;}
	.st18{fill:#689F38;stroke:#37474F;stroke-linecap:round;stroke-linejoin:round;stroke-miterlimit:10;}
	.st19{fill:#FFA000;stroke:#37474F;stroke-linecap:round;stroke-linejoin:round;stroke-miterlimit:10;}
	.st20{fill:#FFA000;}
	.st21{fill:#FF6F00;}
	.st22{fill:#D32F2F;}
	.st23{fill:#0097A7;}
	.st24{fill:none;stroke:#80DEEA;stroke-linecap:round;stroke-linejoin:round;stroke-miterlimit:10;}
	.st25{fill:#689F38;}
	.st26{fill:none;stroke:#B0BEC5;stroke-linecap:round;stroke-linejoin:round;stroke-miterlimit:10;}
	.st27{fill:#78909C;stroke:#37474F;stroke-miterlimit:10;}
	.st28{fill:#78909C;}
	.st29{fill:#B71C1C;}
	.st30{fill:#F57F17;}
	.st31{fill:#006064;}
	.st32{fill:#26A69A;stroke:#37474F;stroke-linecap:round;stroke-linejoin:round;stroke-miterlimit:10;}
</style>
<g>
	<path class="st18" d="M5.5,18.7v21c0,5.5,4.5,10,10,10h4c1.4,0,2.5,1.1,2.5,2.5v6.1c0,0.9,1.1,1.3,1.7,0.7l7.8-7.8
		c0.9-0.9,2.2-1.5,3.5-1.5h13.4c5.5,0,10-4.5,10-10v-21c0-5.5-4.5-10-10-10h-33C10,8.7,5.5,13.2,5.5,18.7z"/>
	<path class="st9" d="M5.5,14.7v21c0,5.5,4.5,10,10,10h4c1.4,0,2.5,1.1,2.5,2.5v6.1c0,0.9,1.1,1.3,1.7,0.7l7.8-7.8
		c0.9-0.9,2.2-1.5,3.5-1.5h13.4c5.5,0,10-4.5,10-10v-21c0-5.5-4.5-10-10-10h-33C10,4.7,5.5,9.2,5.5,14.7z"/>
	<path class="st10" d="M7.5,20.7v-6c0-4.4,3.6-8,8-8h6"/>
	<path class="st2" d="M18,19.2v6c0,1.4,1.1,2.5,2.5,2.5h2.3c0.6,0,1.1,0.6,1,1.2l-0.6,3.7c-0.1,0.6,0.4,1.2,1,1.2h1.7
		c0.4,0,0.8-0.2,0.9-0.6l1.9-4.5c0.3-0.6,0.4-1.3,0.4-1.9v-7.5c0-1.4-1.1-2.5-2.5-2.5h-6C19.1,16.7,18,17.8,18,19.2z"/>
	<path class="st2" d="M35,19.2v6c0,1.4,1.1,2.5,2.5,2.5h2.3c0.6,0,1.1,0.6,1,1.2l-0.6,3.7c-0.1,0.6,0.4,1.2,1,1.2h1.7
		c0.4,0,0.8-0.2,0.9-0.6l1.9-4.5c0.3-0.6,0.4-1.3,0.4-1.9v-7.5c0-1.4-1.1-2.5-2.5-2.5h-6C36.1,16.7,35,17.8,35,19.2z"/>
</g>
</svg>
